<?xml version="1.0" encoding="utf-8"?>
<svg xmlns="http://www.w3.org/2000/svg" viewBox="0 0 512 512" xmlns:bx="https://boxy-svg.com">
  <ellipse style="fill: none; paint-order: fill; stroke-width: 12px; stroke: rgb(67, 247, 233); transform-origin: 255.257px 208.793px 0px;" cx="256" cy="256" rx="250.014" ry="249.985" transform="matrix(0.482312, -0.875999, 0.875999, 0.482312, -40.975774, 24.98859)"/>
  <ellipse style="stroke-width: 8px; fill: none; paint-order: fill; stroke: rgb(67, 247, 233); transform-origin: 255.257px 208.793px 0px;" cx="256" cy="256" rx="43.595" ry="43.595" transform="matrix(0.482312, -0.875999, 0.875999, 0.482312, -40.975774, 24.98859)"/>
  <path style="fill: none; stroke-width: 8px; stroke: rgb(67, 247, 233); transform-origin: 214.281px 233.781px 0px;" d="M 215.052 30.28 L 215.044 237.253" transform="matrix(0.482311, -0.876, 0.876, 0.482311, 0, 0)"/>
  <path style="fill: none; stroke-width: 8px; stroke: rgb(67, 247, 233); transform-origin: 214.281px 233.782px 0px;" d="M 256.047 300.283 L 257.477 506.407" transform="matrix(0.999794, -0.020303, 0.020303, 0.999794, 0, 0)"/>
  <path style="fill: none; stroke-width: 8px; stroke: rgb(67, 247, 233); transform-origin: 214.283px 233.781px 0px;" d="M 173.657 302.774 L 173.649 509.746" transform="matrix(-0.51748, -0.855695, 0.855695, -0.51748, 0, 0)"/>
  <path style="fill: none; stroke-width: 8px; stroke: rgb(67, 247, 233); transform-origin: 214.281px 233.781px 0px;" d="M 71.724 115.211 L 184.819 250.417" transform="matrix(0.482311, -0.876, 0.876, 0.482311, 0, 0)"/>
  <path style="fill: none; stroke: rgb(0, 0, 0); transform-origin: 214.281px 233.781px 0px;" d="" transform="matrix(0.999806, -0.01972, 0.01972, 0.999806, 0, 0)"/>
  <path style="fill: none; stroke: rgb(0, 0, 0); transform-origin: 214.281px 233.781px 0px;" d="" transform="matrix(0.999806, -0.01972, 0.01972, 0.999806, 0, 0)"/>
  <path style="fill: none; stroke: rgb(0, 0, 0); transform-origin: 214.281px 233.781px 0px;" d="" transform="matrix(0.999806, -0.01972, 0.01972, 0.999806, 0, 0)"/>
  <path style="fill: none; stroke-width: 8px; stroke: rgb(67, 247, 233); transform-origin: 214.281px 233.781px 0px;" d="M 102.591 222.318 L 175.589 260.92" transform="matrix(0.482311, -0.876, 0.876, 0.482311, 0, 0)"/>
  <path style="fill: none; stroke-width: 8px; stroke: rgb(67, 247, 233); transform-origin: 214.281px 233.781px 0px;" d="M 40.555 321.968 L 171.518 290.152" transform="matrix(0.482311, -0.876, 0.876, 0.482311, 0, 0)"/>
  <path style="fill: none; stroke-width: 8px; stroke: rgb(67, 247, 233); transform-origin: 214.281px 233.781px 0px;" d="M 11.693 252.474 L 172.339 275.795" transform="matrix(0.482311, -0.876, 0.876, 0.482311, 0, 0)"/>
  <path style="fill: none; stroke-width: 8px; stroke: rgb(67, 247, 233); transform-origin: 214.281px 233.781px 0px;" d="M 187.424 207.325 L 199.162 241.496" transform="matrix(0.482311, -0.876, 0.876, 0.482311, 0, 0)"/>
  <path d="M 227.505 161.188 L 238.769 183.716 L 216.241 183.716 L 227.505 161.188 Z" bx:shape="triangle 216.241 161.188 22.528 22.528 0.5 0 1@000657cf" style="stroke: rgb(0, 0, 0); stroke-width: 0px; fill: rgb(67, 247, 233); transform-origin: 244.519px 212.057px 0px;" transform="matrix(0.177651, -0.984094, 0.984094, 0.177651, -30.236855, 21.725729)"/>
  <path d="M 227.505 161.188 L 238.769 183.716 L 216.241 183.716 L 227.505 161.188 Z" bx:shape="triangle 216.241 161.188 22.528 22.528 0.5 0 1@000657cf" style="stroke: rgb(0, 0, 0); stroke-width: 0px; fill: rgb(67, 247, 233); transform-origin: 268.138px 282.965px 0px;" transform="matrix(-0.560612, -0.828078, 0.828078, -0.560612, -53.855075, -49.182835)"/>
  <path d="M 227.505 161.188 L 238.769 183.716 L 216.241 183.716 L 227.505 161.188 Z" bx:shape="triangle 216.241 161.188 22.528 22.528 0.5 0 1@000657cf" style="stroke: rgb(0, 0, 0); stroke-width: 0px; fill: rgb(67, 247, 233); transform-origin: 261.427px 357.385px 0px;" transform="matrix(-0.188347, -0.982103, 0.982103, -0.188347, -47.145863, -123.603625)"/>
  <path d="M 227.505 161.188 L 238.769 183.716 L 216.241 183.716 L 227.505 161.188 Z" bx:shape="triangle 216.241 161.188 22.528 22.528 0.5 0 1@000657cf" style="stroke: rgb(0, 0, 0); stroke-width: 0px; fill: rgb(67, 247, 233); transform-origin: 268.768px 369.947px 0px;" transform="matrix(-0.817757, -0.575564, 0.575564, -0.817757, -54.48509, -136.165739)"/>
  <path d="M 227.505 161.188 L 238.769 183.716 L 216.241 183.716 L 227.505 161.188 Z" bx:shape="triangle 216.241 161.188 22.528 22.528 0.5 0 1@000657cf" style="stroke: rgb(0, 0, 0); stroke-width: 0px; fill: rgb(67, 247, 233); transform-origin: 271.088px 362.686px 0px;" transform="matrix(-0.966829, -0.255426, 0.255426, -0.966829, -56.805619, -128.903927)"/>
  <path style="stroke: rgb(0, 0, 0); stroke-width: 0px; fill: rgb(67, 247, 233); transform-origin: 507.606px 383.308px 0px;" transform="matrix(-0.275104, -0.775334, 0.775334, -0.275104, -293.324524, -149.525604)" d="M 732.3 461.019 A 106.278 106.278 0 0 1 682.344 577.921 L 664.228 546.703 A 70.184 70.184 0 0 0 697.218 469.503 Z" bx:shape="pie 629 486 70.184 106.278 76.405 149.872 1@a56f7088"/>
  <rect x="311.628" y="163.957" width="26.08" height="162.508" style="stroke: rgb(0, 0, 0); fill: rgb(67, 247, 233); stroke-width: 0px; transform-origin: 235.572px 328.727px 0px;" transform="matrix(0.837861, -0.545884, 0.545884, 0.837861, -21.291108, -94.944929)"/>
  <path d="M 43.809 134.735 L 56.655 159.669 L 43.809 159.669 L 43.809 134.735 Z" bx:shape="triangle 43.809 134.735 12.846 24.934 0 0 1@b36b14e5" style="stroke: rgb(0, 0, 0); stroke-width: 0px; fill: rgb(67, 247, 233); transform-origin: 145.953px 157.417px 0px;" transform="matrix(-0.837275, 0.546782, -0.546782, -0.837275, 68.328093, 76.363883)"/>
  <path d="M 50.15 92.373 L 64.856 109.468 L 50.15 109.468 L 50.15 92.373 Z" bx:shape="triangle 50.15 92.373 14.706 17.095 0 0 1@43acaa27" style="stroke: rgb(0, 0, 0); stroke-width: 0px; fill: rgb(67, 247, 233); transform-origin: -25.901px 106.224px 0px;" transform="matrix(0.843934, -0.536447, -0.536447, -0.843934, 240.183208, 127.557326)"/>
  <path d="M 319.896 47.044 L 339.801 63.895 L 277.44 137.555 L 262.554 114.775 Z M 257.635 160.949 L 242.748 138.17 L 260.304 117.433 L 275.191 140.212 Z M 234.797 187.924 L 214.893 171.072 L 240.499 140.827 L 255.385 163.606 Z" style="stroke: rgb(0, 0, 0); fill: rgb(67, 247, 233); stroke-width: 0px;"/>
  <path d="M 43.809 134.735 L 56.655 159.669 L 43.809 159.669 L 43.809 134.735 Z" bx:shape="triangle 43.809 134.735 12.846 24.934 0 0 1@b36b14e5" style="stroke: rgb(0, 0, 0); stroke-width: 0px; fill: rgb(67, 247, 233); transform-origin: 29.891px 111.292px 0px;" transform="matrix(-0.763909, -0.645324, 0.645324, -0.763909, 184.390964, 122.489492)"/>
  <path d="M -50.15 -92.373 L -35.444 -75.278 L -50.15 -75.278 L -50.15 -92.373 Z" bx:shape="triangle -50.15 -92.373 14.706 17.095 0 0 1@b2d9b3fc" style="stroke: rgb(0, 0, 0); stroke-width: 0px; fill: rgb(67, 247, 233); transform-origin: -9.582px -123.217px 0px;" transform="matrix(0.755917, 0.654667, 0.654667, -0.755917, 223.864618, 356.998699)"/>
  <path style="stroke: rgb(255, 255, 255); stroke-width: 2px; fill-rule: nonzero; fill: none; transform-origin: 214.706px 233.071px 0px;" d="M 296.131 246.589 L 313.264 222.33" transform="matrix(0.369144, -0.929372, 0.929372, 0.369144, 0, 0)"/>
  <ellipse style="fill: rgba(0, 0, 0, 0); stroke: rgb(67, 247, 233); stroke-width: 3px; transform-origin: 256.313px 303.033px 0px;" cx="211.548" cy="113.318" rx="45.675" ry="45.675" transform="matrix(-0.468471, 0.883479, -0.883479, -0.468471, -42.031924, -69.252348)"/>
  <ellipse style="fill: rgba(0, 0, 0, 0); stroke: rgb(67, 247, 233); stroke-width: 3px; transform-origin: 256.313px 303.033px 0px;" cx="256.614" cy="113.394" rx="45.675" ry="45.675" transform="matrix(-0.468471, 0.883479, -0.883479, -0.468471, -42.031924, -69.252348)"/>
  <ellipse style="fill: rgba(0, 0, 0, 0); stroke: rgb(67, 247, 233); stroke-width: 3px; transform-origin: 256.313px 303.033px 0px;" cx="302.84" cy="113.464" rx="45.675" ry="45.675" transform="matrix(-0.468471, 0.883479, -0.883479, -0.468471, -42.031873, -69.252464)"/>
  <ellipse style="fill: rgba(0, 0, 0, 0); stroke: rgb(67, 247, 233); stroke-width: 3px; transform-origin: 256.313px 303.033px 0px;" cx="234.213" cy="74.505" rx="45.675" ry="45.675" transform="matrix(-0.468471, 0.883479, -0.883479, -0.468471, -42.031924, -69.252348)"/>
  <ellipse style="fill: rgba(0, 0, 0, 0); stroke: rgb(67, 247, 233); stroke-width: 3px; transform-origin: 256.313px 303.033px 0px;" cx="279.538" cy="74.292" rx="45.675" ry="45.675" transform="matrix(-0.468471, 0.883479, -0.883479, -0.468471, -42.031924, -69.252348)"/>
  <ellipse style="fill: rgba(0, 0, 0, 0); stroke: rgb(67, 247, 233); stroke-width: 3px; transform-origin: 256.313px 303.033px 0px;" cx="234.14" cy="152.919" rx="45.675" ry="45.675" transform="matrix(-0.468471, 0.883479, -0.883479, -0.468471, -42.031924, -69.252348)"/>
  <ellipse style="fill: rgba(0, 0, 0, 0); stroke: rgb(67, 247, 233); stroke-width: 3px; transform-origin: 256.313px 303.033px 0px;" cx="279.764" cy="153.013" rx="45.675" ry="45.675" transform="matrix(-0.468471, 0.883479, -0.883479, -0.468471, -42.031924, -69.252348)"/>
</svg>